<svg xmlns="http://www.w3.org/2000/svg" fill="none" viewBox="0 0 16 16"><g clip-path="url(#a)"><path fill="#fff" d="M4.967 11A2.948 2.948 0 0 0 6.23 5.389L.753 3c-.372 1.181-.506 1.822.843 2.526-.342 1.243.278 2.089 1.01 2.527 0 1.627.732 2.947 2.36 2.947Z"/><path fill="#fff" d="M11.033 11A2.948 2.948 0 0 1 9.77 5.389L15.247 3c.372 1.181.506 1.822-.843 2.526.342 1.243-.11 2.089-.843 2.527 0 1.627-.899 2.947-2.528 2.947Z"/><path stroke="#000" stroke-width=".9" d="M4.967 11A2.948 2.948 0 0 0 6.23 5.389L.753 3c-.372 1.181-.506 1.822.843 2.526-.342 1.243.278 2.089 1.01 2.527 0 1.627.732 2.947 2.36 2.947Z"/><path stroke="#000" stroke-width=".9" d="M11.033 11A2.948 2.948 0 0 1 9.77 5.389L15.247 3c.372 1.181.506 1.822-.843 2.526.342 1.243-.11 2.089-.843 2.527 0 1.627-.899 2.947-2.528 2.947Z"/><path fill="#2E5FA9" stroke="#000" d="M4.125 7.765 7.56 1.327a.5.5 0 0 1 .882 0l3.433 6.438a.5.5 0 0 1 0 .47l-3.433 6.438a.5.5 0 0 1-.882 0L4.125 8.235a.5.5 0 0 1 0-.47Z"/></g><defs><clipPath id="a"><path fill="#fff" d="M0 0h16v16H0z"/></clipPath></defs></svg>
